<svg width="17" height="17" viewBox="0 0 17 17" fill="none" xmlns="http://www.w3.org/2000/svg">
<mask id="mask0_21_74" style="mask-type:alpha" maskUnits="userSpaceOnUse" x="0" y="0" width="17" height="17">
<rect x="0.499023" y="0.864746" width="16" height="16" fill="#D9D9D9"/>
</mask>
<g mask="url(#mask0_21_74)">
<path d="M7.56567 11.9315L12.2657 7.23145L11.3323 6.29812L7.56567 10.0648L5.66567 8.16479L4.73234 9.09812L7.56567 11.9315ZM8.499 15.5315C7.57678 15.5315 6.71011 15.3565 5.899 15.0065C5.08789 14.6565 4.38234 14.1815 3.78234 13.5815C3.18234 12.9815 2.70734 12.2759 2.35734 11.4648C2.00734 10.6537 1.83234 9.78701 1.83234 8.86479C1.83234 7.94256 2.00734 7.0759 2.35734 6.26479C2.70734 5.45368 3.18234 4.74812 3.78234 4.14812C4.38234 3.54812 5.08789 3.07312 5.899 2.72312C6.71011 2.37312 7.57678 2.19812 8.499 2.19812C9.42122 2.19812 10.2879 2.37312 11.099 2.72312C11.9101 3.07312 12.6157 3.54812 13.2157 4.14812C13.8157 4.74812 14.2907 5.45368 14.6407 6.26479C14.9907 7.0759 15.1657 7.94256 15.1657 8.86479C15.1657 9.78701 14.9907 10.6537 14.6407 11.4648C14.2907 12.2759 13.8157 12.9815 13.2157 13.5815C12.6157 14.1815 11.9101 14.6565 11.099 15.0065C10.2879 15.3565 9.42122 15.5315 8.499 15.5315Z" fill="#464343"/>
</g>
</svg>
