<svg width="25" height="25" viewBox="0 0 25 25" fill="none" xmlns="http://www.w3.org/2000/svg">
<mask id="mask0_18_67" style="mask-type:alpha" maskUnits="userSpaceOnUse" x="0" y="0" width="25" height="25">
<rect x="0.0689545" y="0.649384" width="24" height="24" fill="#D9D9D9"/>
</mask>
<g mask="url(#mask0_18_67)">
<path d="M6.06895 14.6494C5.51895 14.6494 5.04812 14.4536 4.65645 14.0619C4.26479 13.6702 4.06895 13.1994 4.06895 12.6494C4.06895 12.0994 4.26479 11.6286 4.65645 11.2369C5.04812 10.8452 5.51895 10.6494 6.06895 10.6494C6.61895 10.6494 7.08979 10.8452 7.48145 11.2369C7.87312 11.6286 8.06895 12.0994 8.06895 12.6494C8.06895 13.1994 7.87312 13.6702 7.48145 14.0619C7.08979 14.4536 6.61895 14.6494 6.06895 14.6494ZM12.069 14.6494C11.519 14.6494 11.0481 14.4536 10.6565 14.0619C10.2648 13.6702 10.069 13.1994 10.069 12.6494C10.069 12.0994 10.2648 11.6286 10.6565 11.2369C11.0481 10.8452 11.519 10.6494 12.069 10.6494C12.619 10.6494 13.0898 10.8452 13.4815 11.2369C13.8731 11.6286 14.069 12.0994 14.069 12.6494C14.069 13.1994 13.8731 13.6702 13.4815 14.0619C13.0898 14.4536 12.619 14.6494 12.069 14.6494ZM18.069 14.6494C17.519 14.6494 17.0481 14.4536 16.6565 14.0619C16.2648 13.6702 16.069 13.1994 16.069 12.6494C16.069 12.0994 16.2648 11.6286 16.6565 11.2369C17.0481 10.8452 17.519 10.6494 18.069 10.6494C18.619 10.6494 19.0898 10.8452 19.4815 11.2369C19.8731 11.6286 20.069 12.0994 20.069 12.6494C20.069 13.1994 19.8731 13.6702 19.4815 14.0619C19.0898 14.4536 18.619 14.6494 18.069 14.6494Z" fill="#1C1B1F"/>
</g>
</svg>
